<mxfile host="65bd71144e">
    <diagram id="iFwB6xFC04c4elLQx7AU" name="Page-1">
        <mxGraphModel dx="1386" dy="792" grid="1" gridSize="10" guides="1" tooltips="1" connect="1" arrows="1" fold="1" page="1" pageScale="1" pageWidth="850" pageHeight="1100" math="0" shadow="0">
            <root>
                <mxCell id="0"/>
                <mxCell id="1" parent="0"/>
                <mxCell id="2" value="Main All pages&lt;br&gt;" style="text;html=1;align=center;verticalAlign=middle;resizable=0;points=[];autosize=1;strokeColor=none;fillColor=none;" vertex="1" parent="1">
                    <mxGeometry x="10" y="280" width="100" height="30" as="geometry"/>
                </mxCell>
                <mxCell id="7" value="" style="edgeStyle=none;html=1;" edge="1" parent="1" source="3" target="6">
                    <mxGeometry relative="1" as="geometry"/>
                </mxCell>
                <mxCell id="3" value="Header&lt;br&gt;" style="whiteSpace=wrap;html=1;" vertex="1" parent="1">
                    <mxGeometry x="290" y="260" width="120" height="60" as="geometry"/>
                </mxCell>
                <mxCell id="5" value="" style="edgeStyle=none;orthogonalLoop=1;jettySize=auto;html=1;shape=flexArrow;rounded=1;startSize=8;endSize=8;" edge="1" parent="1">
                    <mxGeometry width="100" relative="1" as="geometry">
                        <mxPoint x="150" y="294.5" as="sourcePoint"/>
                        <mxPoint x="250" y="294.5" as="targetPoint"/>
                        <Array as="points">
                            <mxPoint x="200" y="294.5"/>
                        </Array>
                    </mxGeometry>
                </mxCell>
                <mxCell id="14" style="edgeStyle=none;html=1;" edge="1" parent="1" source="6">
                    <mxGeometry relative="1" as="geometry">
                        <mxPoint x="260" y="480" as="targetPoint"/>
                    </mxGeometry>
                </mxCell>
                <mxCell id="15" style="edgeStyle=none;html=1;entryX=0.45;entryY=-0.017;entryDx=0;entryDy=0;entryPerimeter=0;" edge="1" parent="1" source="6" target="10">
                    <mxGeometry relative="1" as="geometry"/>
                </mxCell>
                <mxCell id="17" style="edgeStyle=none;html=1;" edge="1" parent="1" source="6">
                    <mxGeometry relative="1" as="geometry">
                        <mxPoint x="650" y="480" as="targetPoint"/>
                    </mxGeometry>
                </mxCell>
                <mxCell id="6" value="Nav bar" style="whiteSpace=wrap;html=1;" vertex="1" parent="1">
                    <mxGeometry x="290" y="360" width="120" height="60" as="geometry"/>
                </mxCell>
                <mxCell id="13" style="edgeStyle=none;html=1;" edge="1" parent="1" source="8">
                    <mxGeometry relative="1" as="geometry">
                        <mxPoint x="300" y="430" as="targetPoint"/>
                    </mxGeometry>
                </mxCell>
                <mxCell id="8" value="page 1&lt;br&gt;" style="whiteSpace=wrap;html=1;" vertex="1" parent="1">
                    <mxGeometry x="50" y="490" width="120" height="60" as="geometry"/>
                </mxCell>
                <mxCell id="9" value="page 1&lt;br&gt;" style="whiteSpace=wrap;html=1;" vertex="1" parent="1">
                    <mxGeometry x="190" y="490" width="120" height="60" as="geometry"/>
                </mxCell>
                <mxCell id="10" value="page 1&lt;br&gt;" style="whiteSpace=wrap;html=1;" vertex="1" parent="1">
                    <mxGeometry x="330" y="490" width="120" height="60" as="geometry"/>
                </mxCell>
                <mxCell id="16" style="edgeStyle=none;html=1;" edge="1" parent="1" source="11">
                    <mxGeometry relative="1" as="geometry">
                        <mxPoint x="380" y="430" as="targetPoint"/>
                    </mxGeometry>
                </mxCell>
                <mxCell id="11" value="page 1&lt;br&gt;" style="whiteSpace=wrap;html=1;" vertex="1" parent="1">
                    <mxGeometry x="470" y="490" width="120" height="60" as="geometry"/>
                </mxCell>
                <mxCell id="12" value="page 1&lt;br&gt;" style="whiteSpace=wrap;html=1;" vertex="1" parent="1">
                    <mxGeometry x="610" y="490" width="120" height="60" as="geometry"/>
                </mxCell>
            </root>
        </mxGraphModel>
    </diagram>
</mxfile>